<svg height="18" viewBox="0 0 18 18" fill="none" xmlns="http://www.w3.org/2000/svg">
<g clip-path="url(#clip0_89_3884)">
<path d="M10.8721 2.99915H7.12311L5.24862 5.24854H2.99923C2.60151 5.24854 2.22008 5.40653 1.93885 5.68776C1.65763 5.96898 1.49963 6.35041 1.49963 6.74813V13.4963C1.49963 13.894 1.65763 14.2754 1.93885 14.5567C2.22008 14.8379 2.60151 14.9959 2.99923 14.9959H14.996C15.3937 14.9959 15.7751 14.8379 16.0563 14.5567C16.3376 14.2754 16.4956 13.894 16.4956 13.4963V6.74813C16.4956 6.35041 16.3376 5.96898 16.0563 5.68776C15.7751 5.40653 15.3937 5.24854 14.996 5.24854H12.7466L10.8721 2.99915Z" stroke="currentColor" stroke-width="1.87449" stroke-linecap="round" stroke-linejoin="round"/>
<path d="M8.99756 11.9967C10.2399 11.9967 11.2469 10.9896 11.2469 9.74731C11.2469 8.50501 10.2399 7.49792 8.99756 7.49792C7.75526 7.49792 6.74817 8.50501 6.74817 9.74731C6.74817 10.9896 7.75526 11.9967 8.99756 11.9967Z" stroke="currentColor" stroke-width="1.87449" stroke-linecap="round" stroke-linejoin="round"/>
</g>
<defs>
<clipPath id="clip0_89_3884">
<rect width="17.9951" height="17.9951" fill="white"/>
</clipPath>
</defs>
</svg>
