<svg viewBox="0 0 28 28" fill="none" xmlns="http://www.w3.org/2000/svg">
  <path d="M4.66661 18.6664V15.8898C4.66661 13.4165 3.46496 12.2498 3.49996 9.33317C3.53496 6.15987 5.23827 2.33325 8.74989 2.33325C10.9315 2.33325 11.6665 4.43323 11.6665 6.41654C11.6665 10.0448 9.33322 13.0198 9.33322 16.5431V18.6664C9.33322 19.2852 9.08739 19.8787 8.64981 20.3163C8.21223 20.7539 7.61874 20.9997 6.99991 20.9997C6.38108 20.9997 5.7876 20.7539 5.35002 20.3163C4.91244 19.8787 4.66661 19.2852 4.66661 18.6664Z" stroke="currentColor" stroke-width="2.33331" stroke-linecap="round" stroke-linejoin="round"/>
  <path d="M23.333 23.333V20.5564C23.333 18.0831 24.5347 16.9164 24.4997 13.9998C24.4647 10.8265 22.7614 6.99988 19.2498 6.99988C17.0681 6.99988 16.3331 9.09985 16.3331 11.0832C16.3331 14.7115 18.6664 17.6864 18.6664 21.2097V23.333C18.6664 23.9518 18.9123 24.5453 19.3498 24.9829C19.7874 25.4205 20.3809 25.6663 20.9997 25.6663C21.6186 25.6663 22.2121 25.4205 22.6496 24.9829C23.0872 24.5453 23.333 23.9518 23.333 23.333Z" stroke="currentColor" stroke-width="2.33331" stroke-linecap="round" stroke-linejoin="round"/>
  <path d="M18.6664 19.8331H23.3331" stroke="currentColor" stroke-width="2.33331" stroke-linecap="round" stroke-linejoin="round"/>
  <path d="M4.66661 15.1665H9.33322" stroke="currentColor" stroke-width="2.33331" stroke-linecap="round" stroke-linejoin="round"/>
</svg>




