<svg viewBox="0 0 20 20" fill="none" xmlns="http://www.w3.org/2000/svg">
<g clip-path="url(#clip0_69_721)">
<path d="M18.7932 10.2046C18.7932 9.55488 18.7349 8.93011 18.6266 8.33032H9.99638V11.879H14.9279C14.7113 13.0203 14.0616 13.9866 13.0869 14.6364V16.9439H16.0609C17.7936 15.3445 18.7932 12.9953 18.7932 10.2046Z" fill="#4285F4"/>
<path d="M9.99638 19.1597C12.4705 19.1597 14.5447 18.3433 16.0609 16.9438L13.0869 14.6363C12.2706 15.1861 11.2293 15.5194 9.99638 15.5194C7.61391 15.5194 5.58964 13.9116 4.86491 11.7457H1.81601V14.1115C3.3238 17.1021 6.41435 19.1597 9.99638 19.1597Z" fill="#34A853"/>
<path d="M4.86491 11.7374C4.68165 11.1876 4.57335 10.6045 4.57335 9.99637C4.57335 9.38826 4.68165 8.80514 4.86491 8.25534V5.88953H1.81602C1.19124 7.12241 0.833038 8.51358 0.833038 9.99637C0.833038 11.4792 1.19124 12.8703 1.81602 14.1032L4.19016 12.2539L4.86491 11.7374Z" fill="#FBBC05"/>
<path d="M9.99638 4.48169C11.3459 4.48169 12.5455 4.94819 13.5034 5.84786L16.1275 3.22381C14.5364 1.74101 12.4705 0.833008 9.99638 0.833008C6.41435 0.833008 3.3238 2.8906 1.81601 5.88951L4.86491 8.25532C5.58964 6.08944 7.61391 4.48169 9.99638 4.48169Z" fill="#EA4335"/>
</g>
<defs>
<clipPath id="clip0_69_721">
<rect width="19.9928" height="19.9928" fill="white"/>
</clipPath>
</defs>
</svg>
