<svg width="24" height="24" viewBox="0 0 24 24" fill="none" xmlns="http://www.w3.org/2000/svg">
<path d="M2.99951 9.99846C2.99944 9.70758 3.06284 9.42018 3.18527 9.15631C3.3077 8.89245 3.48623 8.65847 3.7084 8.4707L10.7073 2.47265C11.0682 2.16761 11.5255 2.00024 11.9981 2.00024C12.4707 2.00024 12.928 2.16761 13.2889 2.47265L20.2878 8.4707C20.51 8.65847 20.6885 8.89245 20.8109 9.15631C20.9333 9.42018 20.9967 9.70758 20.9967 9.99846V18.997C20.9967 19.5274 20.786 20.036 20.411 20.411C20.036 20.786 19.5273 20.9967 18.997 20.9967H4.9992C4.46885 20.9967 3.96022 20.786 3.58521 20.411C3.21019 20.036 2.99951 19.5274 2.99951 18.997V9.99846Z" stroke="currentColor" stroke-width="1.99968" stroke-linecap="round" stroke-linejoin="round"/>
<path d="M14.9976 20.9967V12.998C14.9976 12.7328 14.8922 12.4785 14.7047 12.291C14.5172 12.1034 14.2629 11.9981 13.9977 11.9981H9.99837C9.73319 11.9981 9.47889 12.1034 9.29138 12.291C9.10388 12.4785 8.99854 12.7328 8.99854 12.998V20.9967" stroke="currentColor" stroke-width="1.99968" stroke-linecap="round" stroke-linejoin="round"/>
</svg>
