<svg width="30" height="30" viewBox="0 0 30 30" fill="none" xmlns="http://www.w3.org/2000/svg">
<path d="M0 9.99999C0 4.47715 4.47715 0 10 0H19.981C25.5039 0 29.981 4.47715 29.981 10V19.981C29.981 25.5039 25.5038 29.981 19.981 29.981H9.99999C4.47715 29.981 0 25.5038 0 19.981V9.99999Z" fill="#3182F6" fill-opacity="0.1"/>
<path d="M20.9889 20.9889V19.2044C20.9889 17.6148 21.7612 16.865 21.7387 14.9905C21.7162 12.951 20.6215 10.4917 18.3646 10.4917C16.9625 10.4917 16.4901 11.8414 16.4901 13.116C16.4901 15.4479 17.9897 17.3599 17.9897 19.6242V20.9889C17.9897 21.3866 18.1477 21.768 18.4289 22.0492C18.7102 22.3305 19.0916 22.4885 19.4893 22.4885C19.887 22.4885 20.2684 22.3305 20.5497 22.0492C20.8309 21.768 20.9889 21.3866 20.9889 20.9889Z" fill="#3182F6" stroke="#3182F6" stroke-width="1.49959" stroke-linecap="round" stroke-linejoin="round"/>
<path d="M17.9896 18.7395H20.9896H17.9896Z" fill="#3182F6"/>
<path d="M17.9896 18.7395H20.9896" stroke="#3182F6" stroke-width="1.49959" stroke-linecap="round" stroke-linejoin="round"/>
<path d="M8.9921 17.9897V16.2052C8.9921 14.6156 8.21981 13.8658 8.2423 11.9913C8.2648 9.95186 9.3595 7.49253 11.6164 7.49253C13.0185 7.49253 13.4909 8.84216 13.4909 10.1168C13.4909 12.4487 11.9913 14.3607 11.9913 16.6251V17.9897C11.9913 18.3874 11.8333 18.7688 11.5521 19.0501C11.2708 19.3313 10.8894 19.4893 10.4917 19.4893C10.094 19.4893 9.71255 19.3313 9.43132 19.0501C9.15009 18.7688 8.9921 18.3874 8.9921 17.9897Z" fill="#3182F6" stroke="#3182F6" stroke-width="1.49959" stroke-linecap="round" stroke-linejoin="round"/>
<path d="M8.99207 15.7403H11.9921H8.99207Z" fill="#3182F6"/>
<path d="M8.99207 15.7403H11.9921" stroke="#3182F6" stroke-width="1.49959" stroke-linecap="round" stroke-linejoin="round"/>
</svg>
